<?xml version="1.0" encoding="utf-8"?>
<!-- Generator: Adobe Illustrator 16.0.4, SVG Export Plug-In . SVG Version: 6.00 Build 0)  -->
<!DOCTYPE svg PUBLIC "-//W3C//DTD SVG 1.1//EN" "http://www.w3.org/Graphics/SVG/1.1/DTD/svg11.dtd">
<svg version="1.1" id="Layer_1" xmlns="http://www.w3.org/2000/svg" xmlns:xlink="http://www.w3.org/1999/xlink" x="0px" y="0px"
	 width="595.28px" height="595.282px" viewBox="0 123.304 595.28 595.282" enable-background="new 0 123.304 595.28 595.282"
	 xml:space="preserve">
<path id="Blue_1_" fill="#9F9F9F" d="M562.726,718.585c18.603,0,32.554-14.882,32.554-32.554V155.859
	c0-18.603-14.882-32.555-32.554-32.555H32.554C14.882,123.305,0,138.187,0,155.859V685.1c0,18.604,14.882,32.556,32.555,32.556
	h530.172V718.585z"/>
<path id="f" fill="#FFFFFF" d="M411.115,718.585V487.914h77.2l11.161-90.222h-89.292v-57.667c0-26.044,7.441-43.716,44.646-43.716
	h47.438v-79.991c-8.371-0.93-36.275-3.72-69.76-3.72c-68.829,0-115.336,41.855-115.336,119.056v66.039h-77.2v90.222h77.2v230.671
	L411.115,718.585L411.115,718.585z"/>
</svg>
