<?xml version="1.0" encoding="utf-8"?>
<!-- Generator: Adobe Illustrator 16.0.4, SVG Export Plug-In . SVG Version: 6.00 Build 0)  -->
<!DOCTYPE svg PUBLIC "-//W3C//DTD SVG 1.1//EN" "http://www.w3.org/Graphics/SVG/1.1/DTD/svg11.dtd">
<svg version="1.1" id="Layer_1" xmlns="http://www.w3.org/2000/svg" xmlns:xlink="http://www.w3.org/1999/xlink" x="0px" y="0px"
	 width="595.279px" height="483.665px" viewBox="0 179.112 595.279 483.665" enable-background="new 0 179.112 595.279 483.665"
	 xml:space="preserve">
<path fill="#9F9F9F" d="M595.28,236.78c-22.322,9.301-45.576,16.742-69.759,19.533c25.113-14.882,44.646-39.065,53.947-67.899
	c-23.253,13.952-49.297,24.184-77.2,29.764c-23.254-24.183-54.878-39.065-90.223-39.065c-67.899,0-121.846,54.877-121.846,121.847
	c0,9.301,0.93,18.603,2.79,27.904c-101.384-4.651-191.605-53.947-251.134-127.427c-10.231,17.672-16.742,39.065-16.742,61.388
	c0,42.786,21.393,79.991,53.947,101.384c-20.463-0.93-39.065-6.511-54.878-14.882c0,0.93,0,0.93,0,1.86
	c0,59.528,41.856,108.825,97.663,119.986c-10.23,2.79-21.393,4.65-32.554,4.65c-7.441,0-15.812-0.93-23.253-1.86
	c15.812,48.367,60.458,83.712,114.405,84.642c-41.855,32.555-94.873,52.087-151.61,52.087c-10.231,0-19.533-0.93-28.834-1.86
	c53.947,33.484,118.126,53.947,186.955,53.947c225.09,0,347.866-186.024,347.866-347.867c0-5.581,0-10.231,0-15.812
	C558.075,282.356,578.537,260.963,595.28,236.78z"/>
</svg>
