<?xml version="1.0" encoding="utf-8"?>
<!-- Generator: Adobe Illustrator 16.0.4, SVG Export Plug-In . SVG Version: 6.00 Build 0)  -->
<!DOCTYPE svg PUBLIC "-//W3C//DTD SVG 1.1//EN" "http://www.w3.org/Graphics/SVG/1.1/DTD/svg11.dtd">
<svg version="1.1" id="Layer_1" xmlns="http://www.w3.org/2000/svg" xmlns:xlink="http://www.w3.org/1999/xlink" x="0px" y="0px"
	 width="595.279px" height="595.281px" viewBox="0 0 595.279 595.281" enable-background="new 0 0 595.279 595.281"
	 xml:space="preserve">
<g>
	<g>
		<g>
			<defs>
				<rect id="SVGID_1_" x="0" y="0" width="595.279" height="595.28"/>
			</defs>
			<clipPath id="SVGID_2_">
				<use xlink:href="#SVGID_1_"  overflow="visible"/>
			</clipPath>
			<path clip-path="url(#SVGID_2_)" fill="#9F9F9F" d="M525.521,251.134h-51.157c3.722,14.882,5.581,29.764,5.581,45.576
				c0,101.383-81.852,183.234-183.234,183.234c-101.384,0-183.234-81.852-183.234-183.234c0-15.812,1.859-30.694,5.581-45.576
				H68.829v251.133c0,13.021,10.231,23.254,23.253,23.254h411.115c13.021,0,23.253-10.23,23.253-23.254V251.134H525.521z
				 M525.521,91.152c0-13.021-10.231-23.253-23.253-23.253h-68.83c-13.021,0-23.253,10.231-23.253,23.253v68.83
				c0,13.021,10.23,23.253,23.253,23.253h68.83c13.021,0,23.253-10.231,23.253-23.253V91.152z M296.71,183.236
				c-63.249,0-114.404,51.156-114.404,114.405s51.155,114.405,114.404,114.405c63.248,0,114.405-51.156,114.405-114.405
				C411.115,234.391,359.958,183.236,296.71,183.236 M525.521,594.351H68.829C30.695,594.351,0,563.656,0,525.521V68.829
				C0,30.694,30.694,0,68.829,0H526.45c38.137,0,68.829,30.694,68.829,68.83v456.692
				C594.35,563.656,563.656,594.351,525.521,594.351"/>
		</g>
	</g>
</g>
</svg>
