<?xml version="1.0" encoding="utf-8"?>
<!-- Generator: Adobe Illustrator 16.0.4, SVG Export Plug-In . SVG Version: 6.00 Build 0)  -->
<!DOCTYPE svg PUBLIC "-//W3C//DTD SVG 1.1//EN" "http://www.w3.org/Graphics/SVG/1.1/DTD/svg11.dtd">
<svg version="1.1" id="Layer_1" xmlns="http://www.w3.org/2000/svg" xmlns:xlink="http://www.w3.org/1999/xlink" x="0px" y="0px"
	 width="595.279px" height="179.378px" viewBox="0 330.661 595.279 179.378" enable-background="new 0 330.661 595.279 179.378"
	 xml:space="preserve">
<g>
	<path fill="#006539" d="M94.253,330.661C42.265,330.661,0,370.941,0,420.35s42.265,89.689,94.253,89.689h406.774
		c51.987,0,94.252-40.281,94.252-89.689s-42.265-89.688-94.252-89.688H94.253z M3.77,420.35c0-47.424,40.678-85.918,90.682-85.918
		h406.774c50.004,0,90.681,38.495,90.681,85.918s-40.677,85.919-90.681,85.919H94.451C44.249,506.269,3.77,467.773,3.77,420.35z"/>
	<path fill="#006539" d="M95.244,341.773h404.791c46.432,0,84.133,35.122,84.133,78.577c0,43.456-37.701,78.577-84.133,78.577
		H95.244c-46.432,0-84.133-35.121-84.133-78.577C11.112,376.895,48.813,341.773,95.244,341.773L95.244,341.773z"/>
	<g>
		<path fill="#FFFFFF" d="M166.083,449.519l-3.373,1.984c-0.596-1.19-1.19-1.786-1.786-2.183c-0.596-0.397-1.389-0.596-2.381-0.596
			c-1.19,0-2.183,0.397-2.977,0.992c-0.794,0.596-1.19,1.389-1.19,2.381c0,1.39,0.992,2.382,2.977,3.374l2.777,1.19
			c2.183,0.992,3.969,1.984,4.961,3.373s1.588,2.977,1.588,4.763c0,2.579-0.794,4.762-2.58,6.35
			c-1.786,1.785-3.771,2.579-6.35,2.579c-2.381,0-4.365-0.794-5.953-2.183c-1.587-1.389-2.579-3.373-2.976-5.953l4.166-0.992
			c0.199,1.588,0.596,2.778,0.992,3.374c0.794,1.19,2.183,1.785,3.771,1.785c1.389,0,2.381-0.396,3.175-1.389
			c0.794-0.794,1.389-1.984,1.389-3.373c0-0.596,0-0.992-0.198-1.588c-0.198-0.396-0.396-0.794-0.794-1.19
			c-0.396-0.396-0.793-0.794-1.19-0.992c-0.595-0.396-1.19-0.595-1.785-0.992l-2.778-1.19c-3.771-1.587-5.755-3.969-5.755-7.144
			c0-2.183,0.794-3.77,2.382-5.159c1.587-1.389,3.571-2.183,5.952-2.183C161.718,444.756,164.297,446.344,166.083,449.519z"/>
		<path fill="#FFFFFF" d="M187.513,449.122v24.009h-4.167v-24.009h-6.35v-3.969h16.866v3.969H187.513z"/>
		<path fill="#FFFFFF" d="M218.468,466.385h-11.906l-3.175,6.746h-4.563l13.691-29.565l13.295,29.565h-4.564L218.468,466.385z
			 M216.682,462.416l-4.167-9.524l-4.365,9.524H216.682z M208.944,436.621c0-0.992,0.396-1.786,1.19-2.58s1.587-1.19,2.579-1.19
			s1.984,0.396,2.58,1.19c0.794,0.794,1.19,1.588,1.19,2.58s-0.396,1.984-1.19,2.579c-0.794,0.794-1.588,1.19-2.58,1.19
			s-1.984-0.396-2.579-1.19C209.34,438.605,208.944,437.812,208.944,436.621z M210.928,436.621c0,0.595,0.198,0.992,0.595,1.389
			c0.397,0.396,0.794,0.596,1.19,0.596c0.596,0,0.992-0.199,1.19-0.596c0.397-0.396,0.596-0.794,0.596-1.19
			c0-0.596-0.198-0.992-0.596-1.19c-0.396-0.397-0.793-0.596-1.19-0.596c-0.198,0-0.396,0-0.793,0.198
			c-0.199,0-0.397,0.199-0.596,0.397s-0.198,0.396-0.396,0.595C210.928,436.224,210.928,436.422,210.928,436.621z"/>
		<path fill="#FFFFFF" d="M240.295,445.352v24.01h8.135v3.969h-12.302v-27.979H240.295z"/>
		<path fill="#FFFFFF" d="M258.947,473.131l5.953-29.962l9.524,21.629l9.922-21.629l5.357,29.962h-4.365l-2.778-16.866
			l-8.334,18.058l-7.938-18.058l-2.976,16.866H258.947z"/>
		<path fill="#FFFFFF" d="M299.228,459.043c0-3.969,1.389-7.342,4.365-10.12c2.777-2.777,6.35-4.167,10.317-4.167
			c3.969,0,7.342,1.39,10.12,4.167c2.778,2.778,4.365,6.35,4.365,10.318s-1.389,7.342-4.365,10.12
			c-2.778,2.777-6.35,4.167-10.318,4.167c-3.571,0-6.746-1.19-9.723-3.771C300.815,467.179,299.228,463.606,299.228,459.043z
			 M303.394,459.241c0,3.175,0.992,5.557,3.175,7.54c1.984,1.984,4.366,2.977,7.144,2.977c2.977,0,5.357-0.992,7.342-2.977
			c1.984-1.983,2.977-4.563,2.977-7.54s-0.992-5.556-2.977-7.54s-4.365-2.977-7.342-2.977c-2.976,0-5.357,0.992-7.342,2.977
			S303.394,456.265,303.394,459.241z M307.164,437.812c0-0.794,0.198-1.39,0.794-1.786c0.595-0.595,1.19-0.794,1.786-0.794
			c0.793,0,1.389,0.199,1.785,0.794c0.596,0.596,0.794,1.19,0.794,1.786c0,0.794-0.198,1.389-0.794,1.786
			c-0.396,0.595-1.19,0.793-1.785,0.793c-0.794,0-1.39-0.198-1.786-0.793C307.363,439.2,307.164,438.605,307.164,437.812z
			 M315.3,437.812c0-0.794,0.198-1.39,0.794-1.786c0.595-0.595,1.19-0.794,1.785-0.794c0.596,0,1.39,0.199,1.786,0.794
			c0.595,0.596,0.794,1.19,0.794,1.786c0,0.794-0.199,1.389-0.794,1.786c-0.596,0.595-1.19,0.793-1.786,0.793
			c-0.793,0-1.389-0.198-1.785-0.793C315.498,439.2,315.3,438.605,315.3,437.812z"/>
		<path fill="#FFFFFF" d="M340.897,473.131v-27.779h4.167c1.786,0,3.373,0.198,4.365,0.396c1.19,0.199,1.984,0.794,2.778,1.39
			c0.794,0.793,1.389,1.587,1.786,2.579c0.396,0.992,0.793,2.183,0.793,3.175c0,1.984-0.793,3.771-2.381,5.159
			c1.389,0.596,2.58,1.389,3.572,2.58c0.793,1.19,1.19,2.777,1.19,4.365c0,2.183-0.794,3.969-2.382,5.556
			c-0.991,0.992-1.983,1.587-3.175,1.984c-1.19,0.396-2.777,0.595-4.762,0.595H340.897z M345.064,457.257h1.389
			c1.588,0,2.778-0.396,3.374-0.992c0.793-0.793,1.19-1.785,1.19-2.976c0-1.39-0.397-2.382-1.19-2.977
			c-0.794-0.596-1.786-0.992-3.175-0.992h-1.588V457.257L345.064,457.257z M345.064,469.163h2.58c1.983,0,3.373-0.397,4.167-1.19
			c0.992-0.794,1.389-1.786,1.389-2.977s-0.396-2.183-1.389-2.977c-0.794-0.794-2.382-1.19-4.763-1.19h-2.183v8.334H345.064z"/>
		<path fill="#FFFFFF" d="M375.82,445.352v24.01h8.136v3.969h-12.303v-27.979H375.82z"/>
		<path fill="#FFFFFF" d="M412.33,449.122h-11.111v6.746h10.913v3.969h-10.913v9.326h11.111v3.968h-15.477v-27.779h15.278v3.771
			H412.33z"/>
		<path fill="#FFFFFF" d="M436.142,461.226l8.73,11.905h-5.159l-7.937-11.31h-0.794v11.31h-4.365v-27.779h4.961
			c3.77,0,6.35,0.596,7.937,1.984c1.786,1.587,2.778,3.571,2.778,6.151c0,1.984-0.596,3.77-1.786,5.159
			C439.515,460.035,437.928,460.829,436.142,461.226z M430.784,458.051h1.389c3.969,0,5.953-1.587,5.953-4.563
			c0-2.778-1.984-4.365-5.755-4.365h-1.587V458.051z"/>
	</g>
	<g>
		<path fill="#FFFFFF" d="M111.119,397.531h19.644v1.587c0,3.77-0.396,7.144-1.19,10.12c-0.794,2.778-2.183,5.159-4.167,7.541
			c-4.365,5.159-10.119,7.937-16.866,7.937c-6.746,0-12.303-2.579-17.064-7.54c-4.763-5.159-7.144-11.112-7.144-18.255
			c0-7.342,2.381-13.493,7.144-18.454c4.762-5.159,10.715-7.54,17.66-7.54c3.77,0,7.144,0.794,10.517,2.381
			c3.175,1.587,6.151,4.167,9.127,7.738l-5.158,5.159c-3.969-5.556-8.731-8.135-14.287-8.135c-4.961,0-9.326,1.786-12.699,5.556
			c-3.373,3.572-5.159,8.136-5.159,13.493c0,5.556,1.984,10.12,5.754,13.89c3.572,3.374,7.342,4.961,11.509,4.961
			c3.572,0,6.747-1.19,9.524-3.77c2.778-2.58,4.366-5.556,4.763-9.128h-11.905V397.531L111.119,397.531z"/>
		<path fill="#FFFFFF" d="M158.741,402.293l14.882,21.43h-8.929l-13.891-20.636h-1.389v20.636h-7.144v-50.202h8.532
			c6.35,0,10.914,1.19,13.691,3.77c3.175,2.778,4.564,6.35,4.564,10.914c0,3.572-0.992,6.548-2.977,9.127
			C164.495,399.912,161.916,401.499,158.741,402.293z M149.614,396.539h2.382c6.944,0,10.317-2.778,10.317-8.135
			c0-5.159-3.373-7.739-10.119-7.739h-2.58V396.539L149.614,396.539z"/>
		<path fill="#FFFFFF" d="M191.482,401.896l-15.478-28.573h8.334l10.914,20.041l10.913-20.041h8.334l-15.676,28.573v21.628h-7.144
			v-21.628H191.482z"/>
		<path fill="#FFFFFF" d="M237.913,380.665v43.058h-7.143v-43.058h-10.914v-7.144h28.971v7.144H237.913z"/>
		<path fill="#FFFFFF" d="M265.098,393.166h20.637v-19.645h7.144v50.202h-7.144v-23.414h-20.637v23.414h-7.144v-50.202h7.144
			V393.166z"/>
		<path fill="#FFFFFF" d="M316.49,401.896l-15.478-28.573h8.334l10.914,20.041l10.913-20.041h8.334l-15.676,28.573v21.628h-7.144
			v-21.628H316.49z"/>
		<path fill="#FFFFFF" d="M362.922,380.665v43.058h-7.144v-43.058h-10.913v-7.144h28.971v7.144H362.922z"/>
		<path fill="#FFFFFF" d="M398.639,380.665v43.058h-7.144v-43.058h-10.913v-7.144h28.971v7.144H398.639z"/>
		<path fill="#FFFFFF" d="M442.69,411.42h-20.438l-5.357,12.104h-7.739l23.613-53.376l22.818,53.376h-7.937L442.69,411.42z
			 M439.713,404.277l-7.143-17.065l-7.342,17.065H439.713z"/>
		<path fill="#FFFFFF" d="M464.12,423.723v-53.575l34.923,38.296v-34.923h7.144v53.376l-34.924-38.296v35.121H464.12z"/>
	</g>
	<g>
		<g>
			<path fill="#FFFFFF" d="M39.09,412.611c-4.961,0-8.93,3.968-8.93,8.93c0,4.96,3.969,8.929,8.93,8.929s8.929-3.969,8.929-8.929
				C48.019,416.58,44.051,412.611,39.09,412.611z M39.09,426.303c-2.778,0-4.961-2.183-4.961-4.961c0-2.778,2.183-4.96,4.961-4.96
				s4.961,2.183,4.961,4.96C44.051,424.12,41.868,426.303,39.09,426.303z"/>
		</g>
	</g>
	<g>
		<g>
			<path fill="#FFFFFF" d="M556.19,412.611c-4.961,0-8.929,3.968-8.929,8.93c0,4.96,3.968,8.929,8.929,8.929s8.93-3.969,8.93-8.929
				C564.921,416.58,560.952,412.611,556.19,412.611z M556.19,426.303c-2.777,0-4.961-2.183-4.961-4.961
				c0-2.778,2.184-4.96,4.961-4.96c2.778,0,4.961,2.183,4.961,4.96C560.952,424.12,558.77,426.303,556.19,426.303z"/>
		</g>
	</g>
</g>
</svg>
